<svg width="135" height="108" fill="none" xmlns="http://www.w3.org/2000/svg"><path d="M27.29 98.646h80.055" stroke="url(#paint0_linear)" stroke-width="3" stroke-miterlimit="10" stroke-linecap="round" stroke-linejoin="round"/><path d="M61.01 106.092H43.18" stroke="url(#paint1_linear)" stroke-width="3" stroke-miterlimit="10" stroke-linecap="round" stroke-linejoin="round"/><path d="M91.455 106.092H76.84" stroke="url(#paint2_linear)" stroke-width="3" stroke-miterlimit="10" stroke-linecap="round" stroke-linejoin="round"/><path d="M71.502 106.092h-4.67" stroke="url(#paint3_linear)" stroke-width="3" stroke-miterlimit="10" stroke-linecap="round" stroke-linejoin="round"/><path d="M39.965 60.75a23.643 23.643 0 01-14.191 4.722C12.614 65.472 2 54.817 2 41.742 2 28.664 12.613 18.01 25.774 18.01a23.51 23.51 0 0114.191 4.722" stroke="url(#paint4_linear)" stroke-width="3" stroke-miterlimit="10" stroke-linecap="round" stroke-linejoin="round"/><path d="M16.737 37.564a2.848 2.848 0 002.85-2.845 2.848 2.848 0 00-2.85-2.845 2.848 2.848 0 00-2.85 2.845 2.848 2.848 0 002.85 2.845zm18.073 0a2.848 2.848 0 002.85-2.845 2.848 2.848 0 00-2.85-2.845 2.848 2.848 0 00-2.85 2.845 2.848 2.848 0 002.85 2.845z" fill="#A2F21E"/><path d="M11.279 50.64h25.835" stroke="url(#paint5_linear)" stroke-width="3" stroke-miterlimit="10" stroke-linecap="round" stroke-linejoin="round"/><path d="M95.58 22.43c3.88-2.785 8.672-4.42 13.827-4.42 13.1 0 23.774 10.595 23.774 23.731 0 13.076-10.614 23.73-23.774 23.73-5.701 0-10.917-1.997-15.04-5.326" stroke="url(#paint6_linear)" stroke-width="3" stroke-miterlimit="10" stroke-linecap="round" stroke-linejoin="round"/><path d="M100.37 37.564a2.848 2.848 0 002.851-2.845 2.848 2.848 0 00-2.851-2.845 2.848 2.848 0 00-2.85 2.845 2.848 2.848 0 002.85 2.845zm18.073 0a2.848 2.848 0 002.851-2.845 2.849 2.849 0 00-2.851-2.845 2.848 2.848 0 00-2.85 2.845 2.848 2.848 0 002.85 2.845z" fill="#A2F21E"/><path d="M98.369 48.824c9.036-3.995 17.83-3.087 25.532 1.756" stroke="url(#paint7_linear)" stroke-width="3" stroke-miterlimit="10" stroke-linecap="round" stroke-linejoin="round"/><path d="M98.369 40.591a30.785 30.785 0 01-4.67 16.345l-1.092 1.635c-5.64 7.87-14.858 13.015-25.29 13.015-10.431 0-19.65-5.146-25.29-13.015l-1.091-1.635c-2.972-4.722-4.67-10.352-4.67-16.345a30.738 30.738 0 013.881-15.013c.303-.545.607-1.09.97-1.574 5.52-8.657 15.163-14.347 26.2-14.347 11.038 0 20.681 5.75 26.2 14.347.364.545.667 1.03.97 1.574a30.913 30.913 0 013.882 15.013z" stroke="url(#paint8_linear)" stroke-width="3" stroke-miterlimit="10" stroke-linecap="round" stroke-linejoin="round"/><path d="M55.491 35.143c2.043 0 3.7-1.653 3.7-3.693a3.696 3.696 0 00-3.7-3.693 3.696 3.696 0 00-3.7 3.693 3.696 3.696 0 003.7 3.693zm23.653 0c2.043 0 3.7-1.653 3.7-3.693a3.696 3.696 0 00-3.7-3.693 3.696 3.696 0 00-3.7 3.693 3.696 3.696 0 003.7 3.693z" fill="#A2F21E"/><path d="M86.24 49.914a35.987 35.987 0 01-37.784 0" stroke="url(#paint9_linear)" stroke-width="3" stroke-miterlimit="10" stroke-linecap="round" stroke-linejoin="round"/><path d="M74.17 87.326v5.206H60.465V78.91h11.887" stroke="url(#paint10_linear)" stroke-width="3" stroke-miterlimit="10" stroke-linecap="round" stroke-linejoin="round"/><path d="M64.103 83.694l3.7 4.842 10.674-9.322" stroke="url(#paint11_linear)" stroke-width="3" stroke-miterlimit="10" stroke-linecap="round" stroke-linejoin="round"/><path d="M82.176 4.875c2.911 1.21 5.7 2.845 8.187 4.721" stroke="url(#paint12_linear)" stroke-width="3" stroke-miterlimit="10" stroke-linecap="round" stroke-linejoin="round"/><path d="M38.45 15.105C45.483 6.993 55.793 1.908 67.316 1.908" stroke="url(#paint13_linear)" stroke-width="3" stroke-miterlimit="10" stroke-linecap="round" stroke-linejoin="round"/><defs><linearGradient id="paint0_linear" x1="67.317" y1="98.646" x2="67.317" y2="99.646" gradientUnits="userSpaceOnUse"><stop stop-color="#A2F71D"/><stop offset="1" stop-color="#43E849"/></linearGradient><linearGradient id="paint1_linear" x1="52.095" y1="106.092" x2="52.095" y2="107.092" gradientUnits="userSpaceOnUse"><stop stop-color="#A2F71D"/><stop offset="1" stop-color="#43E849"/></linearGradient><linearGradient id="paint2_linear" x1="84.147" y1="106.092" x2="84.147" y2="107.092" gradientUnits="userSpaceOnUse"><stop stop-color="#A2F71D"/><stop offset="1" stop-color="#43E849"/></linearGradient><linearGradient id="paint3_linear" x1="69.167" y1="106.092" x2="69.167" y2="107.092" gradientUnits="userSpaceOnUse"><stop stop-color="#A2F71D"/><stop offset="1" stop-color="#43E849"/></linearGradient><linearGradient id="paint4_linear" x1="20.983" y1="18.011" x2="20.983" y2="65.472" gradientUnits="userSpaceOnUse"><stop stop-color="#A2F71D"/><stop offset="1" stop-color="#43E849"/></linearGradient><linearGradient id="paint5_linear" x1="24.197" y1="50.64" x2="24.197" y2="51.64" gradientUnits="userSpaceOnUse"><stop stop-color="#A2F71D"/><stop offset="1" stop-color="#43E849"/></linearGradient><linearGradient id="paint6_linear" x1="113.773" y1="18.011" x2="113.773" y2="65.472" gradientUnits="userSpaceOnUse"><stop stop-color="#A2F71D"/><stop offset="1" stop-color="#43E849"/></linearGradient><linearGradient id="paint7_linear" x1="111.135" y1="46.313" x2="111.135" y2="50.58" gradientUnits="userSpaceOnUse"><stop stop-color="#A2F71D"/><stop offset="1" stop-color="#43E849"/></linearGradient><linearGradient id="paint8_linear" x1="67.317" y1="9.657" x2="67.317" y2="71.586" gradientUnits="userSpaceOnUse"><stop stop-color="#A2F71D"/><stop offset="1" stop-color="#43E849"/></linearGradient><linearGradient id="paint9_linear" x1="67.348" y1="49.914" x2="67.348" y2="55.271" gradientUnits="userSpaceOnUse"><stop stop-color="#A2F71D"/><stop offset="1" stop-color="#43E849"/></linearGradient><linearGradient id="paint10_linear" x1="67.317" y1="78.911" x2="67.317" y2="92.532" gradientUnits="userSpaceOnUse"><stop stop-color="#A2F71D"/><stop offset="1" stop-color="#43E849"/></linearGradient><linearGradient id="paint11_linear" x1="71.29" y1="79.214" x2="71.29" y2="88.536" gradientUnits="userSpaceOnUse"><stop stop-color="#A2F71D"/><stop offset="1" stop-color="#43E849"/></linearGradient><linearGradient id="paint12_linear" x1="86.27" y1="4.875" x2="86.27" y2="9.596" gradientUnits="userSpaceOnUse"><stop stop-color="#A2F71D"/><stop offset="1" stop-color="#43E849"/></linearGradient><linearGradient id="paint13_linear" x1="52.883" y1="1.908" x2="52.883" y2="15.105" gradientUnits="userSpaceOnUse"><stop stop-color="#A2F71D"/><stop offset="1" stop-color="#43E849"/></linearGradient></defs></svg>