<svg width="79" height="57" fill="none" xmlns="http://www.w3.org/2000/svg"><path d="M26.231 25.604s-7.625-6.096 7.93-17.374L26.232 0S-2.44 18.898.305 39.93C.305 49.38 7.93 57 17.385 57c9.456 0 17.082-7.62 17.082-17.07 0-6.096-3.355-11.278-8.236-14.326z" fill="url(#paint0_linear)"/><path d="M70.764 25.604s-7.625-6.096 7.93-17.374L70.765 0S42.093 18.898 44.838 39.93c0 9.45 7.625 17.07 17.08 17.07C71.375 57 79 49.38 79 39.93c0-6.096-3.355-11.278-8.236-14.326z" fill="url(#paint1_linear)"/><defs><linearGradient id="paint0_linear" x1="17.293" y1="0" x2="17.293" y2="57" gradientUnits="userSpaceOnUse"><stop stop-color="#94F425"/><stop offset="1" stop-color="#46E848"/></linearGradient><linearGradient id="paint1_linear" x1="61.826" y1="0" x2="61.826" y2="57" gradientUnits="userSpaceOnUse"><stop stop-color="#94F425"/><stop offset="1" stop-color="#46E848"/></linearGradient></defs></svg>