<svg width="84" height="100" fill="none" xmlns="http://www.w3.org/2000/svg"><path d="M1.632 90.81h80.736" stroke="url(#paint0_linear)" stroke-width="2.5" stroke-miterlimit="10" stroke-linecap="round" stroke-linejoin="round"/><path d="M35.639 98.394H17.656" stroke="url(#paint1_linear)" stroke-width="2.5" stroke-miterlimit="10" stroke-linecap="round" stroke-linejoin="round"/><path d="M66.344 98.394h-14.74" stroke="url(#paint2_linear)" stroke-width="2.5" stroke-miterlimit="10" stroke-linecap="round" stroke-linejoin="round"/><path d="M46.221 98.394h-4.71" stroke="url(#paint3_linear)" stroke-width="2.5" stroke-miterlimit="10" stroke-linecap="round" stroke-linejoin="round"/><path d="M44.692 79.005c20.032 0 36.27-16.238 36.27-36.27 0-20.031-16.238-36.27-36.27-36.27-20.031 0-36.27 16.239-36.27 36.27 0 20.032 16.239 36.27 36.27 36.27z" stroke="url(#paint4_linear)" stroke-width="2.5" stroke-miterlimit="10" stroke-linecap="round" stroke-linejoin="round"/><path d="M64.937 79.066C44.875 90.26 19.554 83.042 8.361 62.98-2.832 42.92 4.324 17.597 24.385 6.404" stroke="url(#paint5_linear)" stroke-width="2.5" stroke-miterlimit="10" stroke-linecap="round" stroke-linejoin="round"/><path d="M44.2 84.326v6.484" stroke="url(#paint6_linear)" stroke-width="2.5" stroke-miterlimit="10" stroke-linecap="round" stroke-linejoin="round"/><path d="M26.649 11.236l7.34 1.712 3.364 2.447 1.65 3.364c.49 1.04.796 2.14.796 3.242a7.318 7.318 0 01-4.098 6.544l-1.346.673c-.733.367-1.467.795-2.08 1.346L29.34 33.01a3.312 3.312 0 00-.917 1.346l-1.774 5.75c0 .121-.061.183-.061.305l-1.224 6.422c-.244 1.346-1.468 2.386-2.874 2.386-1.162 0-2.263.733-2.691 1.773l-.857 2.08 3.548 4.71 14.434 6.36a8.321 8.321 0 012.325 1.468l1.529 1.346c.795.734 1.468 1.59 2.018 2.569l1.896 3.67v5.81" stroke="url(#paint7_linear)" stroke-width="2.5" stroke-miterlimit="10" stroke-linecap="round" stroke-linejoin="round"/><path d="M66.345 13.682l-.061.184c-1.713 4.281-5.138 7.645-9.42 9.236l-2.018.733a2.56 2.56 0 00-1.1.673l-1.102 1.101c-.611.612-.978 1.407-.978 2.263 0 .673.244 1.346.611 1.896l.612.796c.367.489.795.795 1.345 1.04l4.22 1.712c.368.183.796.245 1.224.245h8.563c1.346 0 2.691.183 4.037.611l1.223.367c2.14.673 4.465.795 6.667.367" stroke="url(#paint8_linear)" stroke-width="2.5" stroke-miterlimit="10" stroke-linecap="round" stroke-linejoin="round"/><path d="M80.963 42.735l-4.22-.612-2.447-.734a4.933 4.933 0 00-3.242.184l-.489.183a4.908 4.908 0 01-1.835.367h-.49A4.975 4.975 0 0165 40.9c-.857-.795-2.02-1.223-3.242-1.223h-2.325c-1.284 0-2.569.306-3.67.917-1.834.979-3.241 2.691-3.792 4.71a8.23 8.23 0 00-.305 2.14v1.224c0 2.752 1.406 5.382 3.792 6.85.06.061.122.122.122.245v5.382c0 .061.061.184.061.184l3.303 3.364.061.06 2.691 4.099c.062.122.062.244 0 .305l-2.69 4.343.61 2.263" stroke="url(#paint9_linear)" stroke-width="2.5" stroke-miterlimit="10" stroke-linecap="round" stroke-linejoin="round"/><path d="M32.886 36.13s-.612 2.446-.917 4.22c-.306 1.773-1.285 3.364-.796 5.015" stroke="url(#paint10_linear)" stroke-width="2.5" stroke-miterlimit="10" stroke-linecap="round" stroke-linejoin="round"/><path d="M30.499 3.774S34.29 2.122 38.083 2" stroke="url(#paint11_linear)" stroke-width="2.5" stroke-miterlimit="10" stroke-linecap="round" stroke-linejoin="round"/><defs><linearGradient id="paint0_linear" x1="42" y1="90.809" x2="42" y2="91.809" gradientUnits="userSpaceOnUse"><stop stop-color="#A2F71D"/><stop offset="1" stop-color="#43E849"/></linearGradient><linearGradient id="paint1_linear" x1="26.648" y1="98.394" x2="26.648" y2="99.394" gradientUnits="userSpaceOnUse"><stop stop-color="#A2F71D"/><stop offset="1" stop-color="#43E849"/></linearGradient><linearGradient id="paint2_linear" x1="58.974" y1="98.394" x2="58.974" y2="99.394" gradientUnits="userSpaceOnUse"><stop stop-color="#A2F71D"/><stop offset="1" stop-color="#43E849"/></linearGradient><linearGradient id="paint3_linear" x1="43.866" y1="98.394" x2="43.866" y2="99.394" gradientUnits="userSpaceOnUse"><stop stop-color="#A2F71D"/><stop offset="1" stop-color="#43E849"/></linearGradient><linearGradient id="paint4_linear" x1="44.692" y1="6.465" x2="44.692" y2="79.005" gradientUnits="userSpaceOnUse"><stop stop-color="#A2F71D"/><stop offset="1" stop-color="#43E849"/></linearGradient><linearGradient id="paint5_linear" x1="34.005" y1="6.404" x2="34.005" y2="84.338" gradientUnits="userSpaceOnUse"><stop stop-color="#A2F71D"/><stop offset="1" stop-color="#43E849"/></linearGradient><linearGradient id="paint6_linear" x1="44.7" y1="84.326" x2="44.7" y2="90.81" gradientUnits="userSpaceOnUse"><stop stop-color="#A2F71D"/><stop offset="1" stop-color="#43E849"/></linearGradient><linearGradient id="paint7_linear" x1="31.817" y1="11.236" x2="31.817" y2="79.005" gradientUnits="userSpaceOnUse"><stop stop-color="#A2F71D"/><stop offset="1" stop-color="#43E849"/></linearGradient><linearGradient id="paint8_linear" x1="65.917" y1="13.682" x2="65.917" y2="35.156" gradientUnits="userSpaceOnUse"><stop stop-color="#A2F71D"/><stop offset="1" stop-color="#43E849"/></linearGradient><linearGradient id="paint9_linear" x1="66.314" y1="39.677" x2="66.314" y2="75.763" gradientUnits="userSpaceOnUse"><stop stop-color="#A2F71D"/><stop offset="1" stop-color="#43E849"/></linearGradient><linearGradient id="paint10_linear" x1="31.962" y1="36.129" x2="31.962" y2="45.365" gradientUnits="userSpaceOnUse"><stop stop-color="#A2F71D"/><stop offset="1" stop-color="#43E849"/></linearGradient><linearGradient id="paint11_linear" x1="34.291" y1="2" x2="34.291" y2="3.774" gradientUnits="userSpaceOnUse"><stop stop-color="#A2F71D"/><stop offset="1" stop-color="#43E849"/></linearGradient></defs></svg>