<svg width="26" height="15" fill="none" xmlns="http://www.w3.org/2000/svg"><path d="M12.991 0h10.267C24.868 0 26 .903 26 2.189v10.478c0 1.286-1.131 2.188-2.742 2.188H2.759c-1.61 0-2.742-.902-2.742-2.188C0 9.165 0 5.677 0 2.175 0 .903 1.131 0 2.725 0h10.266zm.018 1.094H2.759c-.874 0-1.388.41-1.388 1.122v10.41c0 .725.497 1.135 1.423 1.135H23.24c.89 0 1.405-.41 1.405-1.121 0-3.475-.017-6.936 0-10.41 0-.698-.617-1.15-1.44-1.15-3.393.028-6.804.014-10.197.014z" fill="#fff"/><path d="M15.305 8.632c-1.525.766-3.05.766-4.593 0-.394.246-.788.492-1.2.739-1.954 1.23-3.908 2.448-5.861 3.68-.36.219-.772.205-1.029-.055-.257-.26-.188-.588.172-.82l6.65-4.16a1.83 1.83 0 00.222-.15c-.428-.315-.857-.63-1.268-.93C6.513 5.553 4.61 4.171 2.725 2.79c-.308-.232-.343-.56-.086-.793.275-.246.686-.26 1.012-.028 1.765 1.314 3.547 2.613 5.33 3.927.754.547 1.508 1.08 2.245 1.641.943.725 2.537.766 3.616-.027 2.486-1.847 4.988-3.666 7.49-5.486.274-.205.549-.232.823-.123.24.096.411.315.36.547-.035.123-.103.274-.223.356-2.16 1.56-4.319 3.146-6.496 4.733-.154.11-.308.22-.462.342.462.288.908.575 1.354.849 1.85 1.162 3.702 2.312 5.553 3.474.274.165.36.41.257.643-.103.22-.377.383-.669.356a.987.987 0 01-.445-.15c-2.28-1.423-4.542-2.846-6.805-4.269-.102-.04-.188-.11-.274-.15z" fill="#fff"/></svg>