<svg width="135" height="49" fill="none" xmlns="http://www.w3.org/2000/svg"><rect x="1" y="12.368" width="130" height="35" rx="5" transform="rotate(-5.017 1 12.368)" stroke="url(#paint0_linear)" stroke-width="2"/><path d="M13.325 39.394l8.966-.787-.262-2.989-5.679.498-.564-6.425 4.513-.396-.262-2.988-4.513.396-.485-5.529 5.678-.498-.262-2.989-8.966.787 1.836 20.92zm12.11-1.063l3.109-.273 1.81-7.507.06-.006 3.031 7.082 3.467-.304-4.735-10.366 2.72-10.538-3.109.273-1.678 6.954-.06.005-2.805-6.56-3.466.304 4.513 9.904-2.856 11.032zm19.322-1.395c3.168-.278 4.673-2.338 4.39-5.566l-.26-2.958-3.108.273.28 3.197c.121 1.375-.489 1.97-1.475 2.057-.986.087-1.69-.393-1.812-1.768l-1.025-11.685c-.121-1.375.487-2 1.473-2.087.986-.087 1.693.424 1.814 1.798l.212 2.421 3.109-.273-.194-2.211c-.284-3.228-2.125-4.994-5.293-4.716-3.168.279-4.674 2.338-4.39 5.566l.986 11.236c.283 3.228 2.125 4.994 5.293 4.716zm8.874-1.08l8.696-.764-.262-2.988-5.41.474-1.573-17.93-3.288.288 1.837 20.92zm17.172-1.207c3.228-.283 4.734-2.343 4.44-5.69l-1.401-15.958-3.168.278 1.422 16.197c.131 1.495-.45 2.088-1.495 2.18-1.046.091-1.721-.391-1.852-1.886l-1.422-16.197-3.287.288 1.4 15.959c.294 3.347 2.136 5.113 5.363 4.83zm13.608-1.194c3.228-.284 4.793-2.348 4.494-5.755-.228-2.6-1.242-4.198-4.203-6.377-2.317-1.694-3.102-2.74-3.236-4.264-.125-1.434.422-2.054 1.468-2.146 1.046-.092 1.694.423 1.825 1.918l.094 1.076 3.109-.273-.077-.867c-.293-3.347-2.045-5.12-5.243-4.84-3.198.28-4.733 2.343-4.445 5.63.21 2.391 1.256 4.016 4.218 6.195 2.317 1.694 3.072 2.742 3.224 4.475.136 1.554-.474 2.15-1.52 2.242-1.046.092-1.75-.389-1.882-1.883l-.126-1.434-3.108.272.105 1.196c.294 3.347 2.076 5.118 5.303 4.835zm8.912-1.084l3.287-.288-1.836-20.92-3.287.289 1.836 20.92zm10.142-.89l4.364-.383L109.16 9.9l-3.018.265-.728 16.417-.059.005-3.577-16.039-3.317.291 5.004 20.642zm11.202-.983l8.966-.787-.262-2.989-5.679.499-.564-6.426 4.513-.396-.262-2.988-4.513.396-.485-5.529 5.678-.498-.262-2.989-8.966.787 1.836 20.92z" fill="url(#paint1_linear)"/><defs><linearGradient id="paint0_linear" x1="95.37" y1="45.708" x2="90.902" y2="7.643" gradientUnits="userSpaceOnUse"><stop stop-color="#30E650"/><stop offset=".6" stop-color="#9FED26"/><stop offset="1" stop-color="#A2F81C"/></linearGradient><linearGradient id="paint1_linear" x1="98.011" y1="38.324" x2="90.232" y2=".796" gradientUnits="userSpaceOnUse"><stop stop-color="#30E650"/><stop offset=".6" stop-color="#9FED26"/><stop offset="1" stop-color="#A2F81C"/></linearGradient></defs></svg>