<svg width="25" height="28" fill="none" xmlns="http://www.w3.org/2000/svg"><path d="M24.341 3.117v21.468c0 1.21-1.228 2.117-2.646 2.117H3.646C2.134 26.702 1 25.719 1 24.585V5.611L6.859 1h14.836c1.512 0 2.646.983 2.646 2.117z" stroke="#63ED3B" stroke-miterlimit="10"/><path d="M6.859 1v3.553c0 .605-.567 1.058-1.323 1.058H1" stroke="#63ED3B" stroke-miterlimit="10"/><path d="M4.59 8.257h16.16M4.59 11.432h16.16M4.59 14.606h16.16M4.59 17.782h7.183M4.59 20.956h4.631" stroke="#63ED3B" stroke-miterlimit="10" stroke-linecap="round"/><path d="M15.93 22.922v-4.309c0-1.134 1.135-2.04 2.552-2.04 1.418 0 2.552.906 2.552 2.04V23.3c0 .755-.756 1.436-1.796 1.436-.945 0-1.795-.605-1.795-1.436v-4.384c0-.454.472-.756.945-.756.567 0 .945.378.945.756v4.006" stroke="#63ED3B" stroke-miterlimit="10"/></svg>