<svg width="85" height="92" fill="none" xmlns="http://www.w3.org/2000/svg"><path d="M2.104 82.353h80.782" stroke="url(#paint0_linear)" stroke-width="2.5" stroke-miterlimit="10" stroke-linecap="round" stroke-linejoin="round"/><path d="M24.38 89.942h-6.242" stroke="url(#paint1_linear)" stroke-width="2.5" stroke-miterlimit="10" stroke-linecap="round" stroke-linejoin="round"/><path d="M66.852 89.942H29.398" stroke="url(#paint2_linear)" stroke-width="2.5" stroke-miterlimit="10" stroke-linecap="round" stroke-linejoin="round"/><path d="M71.871 61.178v21.175h-58.75V61.178c0-11.076 9.425-20.134 21.174-20.44v2.02c0 3.61 3.122 6.548 6.977 6.548h2.51c3.855 0 6.976-2.938 6.976-6.548v-2.02c11.688.306 21.113 9.364 21.113 20.44z" stroke="url(#paint3_linear)" stroke-width="2.5" stroke-miterlimit="10" stroke-linecap="round" stroke-linejoin="round"/><path d="M50.696 35.904v6.854c0 3.61-3.12 6.548-6.976 6.548h-2.51c-3.855 0-6.976-2.938-6.976-6.548v-6.854c0-.306.061-.612.184-.918a12.583 12.583 0 005.691 1.346h4.712c2.02 0 3.978-.49 5.63-1.346.184.306.245.612.245.918z" stroke="url(#paint4_linear)" stroke-width="2.5" stroke-miterlimit="10" stroke-linecap="round" stroke-linejoin="round"/><path d="M28.299 27.091h-.184c-2.264 0-4.1-1.775-4.1-3.978 0-2.203 1.836-4.039 4.1-4.039h.123c-.061.49-.123.918-.123 1.408v4.528c-.06.735.062 1.408.184 2.081z" stroke="url(#paint5_linear)" stroke-width="2.5" stroke-miterlimit="10" stroke-linecap="round" stroke-linejoin="round"/><path d="M56.94 20.482v4.528c0 .735-.062 1.408-.184 2.081-.673 3.427-2.999 6.365-6.242 7.956a12.518 12.518 0 01-5.63 1.346H40.17c-2.08 0-3.978-.49-5.691-1.346-3.183-1.591-5.508-4.468-6.181-7.956a11.445 11.445 0 01-.184-2.08v-4.53c0-.489.061-.917.123-1.407.06-.367.122-.734.183-1.04h10.22c1.836 0 3.672-.367 5.324-1.102a12.91 12.91 0 004.345-3.121v.122c2.081 2.387 5.08 3.856 8.323 4.04.061.367.184.734.184 1.101.061.49.122.98.122 1.408z" stroke="url(#paint6_linear)" stroke-width="2.5" stroke-miterlimit="10" stroke-linecap="round" stroke-linejoin="round"/><path d="M61.04 23.113c0 2.203-1.836 3.978-4.1 3.978h-.184c.123-.673.184-1.346.184-2.08v-4.53c0-.489-.061-.917-.122-1.407h.122c2.264 0 4.1 1.836 4.1 4.04z" stroke="url(#paint7_linear)" stroke-width="2.5" stroke-miterlimit="10" stroke-linecap="round" stroke-linejoin="round"/><path d="M57.429 16.076v1.958c-.306 0-.55 0-.796-.061-3.243-.184-6.242-1.653-8.323-4.04l-.122-.122a12.912 12.912 0 01-4.345 3.121c-1.652.735-3.427 1.102-5.324 1.102H27.503v-1.958C27.503 8.303 34.173 2 42.435 2c4.1 0 7.834 1.591 10.588 4.1 2.753 2.57 4.406 6.059 4.406 9.976z" stroke="url(#paint8_linear)" stroke-width="2.5" stroke-miterlimit="10" stroke-linecap="round" stroke-linejoin="round"/><path d="M35.458 23.113h.306" stroke="url(#paint9_linear)" stroke-width="2.5" stroke-miterlimit="10" stroke-linecap="round" stroke-linejoin="round"/><path d="M49.228 23.113h.306" stroke="url(#paint10_linear)" stroke-width="2.5" stroke-miterlimit="10" stroke-linecap="round" stroke-linejoin="round"/><path d="M46.78 28.376c0 1.53-1.346 2.815-2.998 2.815h-2.57c-1.653 0-3-1.224-3-2.815" stroke="url(#paint11_linear)" stroke-width="2.5" stroke-miterlimit="10" stroke-linecap="round" stroke-linejoin="round"/><path d="M23.28 58.67v23.683" stroke="url(#paint12_linear)" stroke-width="2.5" stroke-miterlimit="10" stroke-linecap="round" stroke-linejoin="round"/><path d="M61.774 65.095v17.258" stroke="url(#paint13_linear)" stroke-width="2.5" stroke-miterlimit="10" stroke-linecap="round" stroke-linejoin="round"/><path d="M61.774 58.67v1.896" stroke="url(#paint14_linear)" stroke-width="2.5" stroke-miterlimit="10" stroke-linecap="round" stroke-linejoin="round"/><defs><linearGradient id="paint0_linear" x1="42.495" y1="82.353" x2="42.495" y2="83.353" gradientUnits="userSpaceOnUse"><stop stop-color="#A2F71D"/><stop offset="1" stop-color="#43E849"/></linearGradient><linearGradient id="paint1_linear" x1="21.259" y1="89.942" x2="21.259" y2="90.942" gradientUnits="userSpaceOnUse"><stop stop-color="#A2F71D"/><stop offset="1" stop-color="#43E849"/></linearGradient><linearGradient id="paint2_linear" x1="48.125" y1="89.942" x2="48.125" y2="90.942" gradientUnits="userSpaceOnUse"><stop stop-color="#A2F71D"/><stop offset="1" stop-color="#43E849"/></linearGradient><linearGradient id="paint3_linear" x1="42.496" y1="40.738" x2="42.496" y2="82.353" gradientUnits="userSpaceOnUse"><stop stop-color="#A2F71D"/><stop offset="1" stop-color="#43E849"/></linearGradient><linearGradient id="paint4_linear" x1="42.465" y1="34.986" x2="42.465" y2="49.306" gradientUnits="userSpaceOnUse"><stop stop-color="#A2F71D"/><stop offset="1" stop-color="#43E849"/></linearGradient><linearGradient id="paint5_linear" x1="26.157" y1="19.074" x2="26.157" y2="27.091" gradientUnits="userSpaceOnUse"><stop stop-color="#A2F71D"/><stop offset="1" stop-color="#43E849"/></linearGradient><linearGradient id="paint6_linear" x1="42.527" y1="13.811" x2="42.527" y2="36.393" gradientUnits="userSpaceOnUse"><stop stop-color="#A2F71D"/><stop offset="1" stop-color="#43E849"/></linearGradient><linearGradient id="paint7_linear" x1="58.898" y1="19.074" x2="58.898" y2="27.091" gradientUnits="userSpaceOnUse"><stop stop-color="#A2F71D"/><stop offset="1" stop-color="#43E849"/></linearGradient><linearGradient id="paint8_linear" x1="42.466" y1="2" x2="42.466" y2="18.034" gradientUnits="userSpaceOnUse"><stop stop-color="#A2F71D"/><stop offset="1" stop-color="#43E849"/></linearGradient><linearGradient id="paint9_linear" x1="35.611" y1="23.113" x2="35.611" y2="24.113" gradientUnits="userSpaceOnUse"><stop stop-color="#A2F71D"/><stop offset="1" stop-color="#43E849"/></linearGradient><linearGradient id="paint10_linear" x1="49.381" y1="23.113" x2="49.381" y2="24.113" gradientUnits="userSpaceOnUse"><stop stop-color="#A2F71D"/><stop offset="1" stop-color="#43E849"/></linearGradient><linearGradient id="paint11_linear" x1="42.497" y1="28.376" x2="42.497" y2="31.191" gradientUnits="userSpaceOnUse"><stop stop-color="#A2F71D"/><stop offset="1" stop-color="#43E849"/></linearGradient><linearGradient id="paint12_linear" x1="23.78" y1="58.669" x2="23.78" y2="82.353" gradientUnits="userSpaceOnUse"><stop stop-color="#A2F71D"/><stop offset="1" stop-color="#43E849"/></linearGradient><linearGradient id="paint13_linear" x1="62.274" y1="65.095" x2="62.274" y2="82.353" gradientUnits="userSpaceOnUse"><stop stop-color="#A2F71D"/><stop offset="1" stop-color="#43E849"/></linearGradient><linearGradient id="paint14_linear" x1="62.274" y1="58.669" x2="62.274" y2="60.566" gradientUnits="userSpaceOnUse"><stop stop-color="#A2F71D"/><stop offset="1" stop-color="#43E849"/></linearGradient></defs></svg>