<svg width="48" height="41" fill="none" xmlns="http://www.w3.org/2000/svg"><path d="M6.85 5.441c-.941.67-1.834 1.42-2.627 2.17.744-.75 1.636-1.5 2.627-2.17zm31.823 6.63c-3.618-1.42-7.435-2.091-11.648-1.855-4.461.237-7.783 2.132-7.683 4.46.247 5.289 9.02 1.973 13.928 6.946 5.403 5.091-.099 14.919-16.853 13.38-6.097-.553-11.4-2.526-15.217-5.723-.149-.119-.397 0-.298.158 4.015 7.893 21.166 16.3 36.73 8.327 14.524-7.46 12.442-20.878 1.041-25.693zM9.18 29.121c3.619 1.42 7.435 2.092 11.649 1.855 4.46-.237 7.782-2.131 7.683-4.46-.248-5.288-9.022-1.973-13.929-6.946-5.353-5.091.149-14.918 16.903-13.38 6.097.553 11.4 2.527 15.217 5.724.149.118.397 0 .297-.158-4.015-7.894-21.165-16.3-36.73-8.328-14.572 7.42-12.44 20.839-1.09 25.693z" fill="url(#paint0_linear)"/><defs><linearGradient id="paint0_linear" x1="34.756" y1="39.047" x2="20.089" y2="-.457" gradientUnits="userSpaceOnUse"><stop stop-color="#30E650"/><stop offset=".6" stop-color="#9FED26"/><stop offset="1" stop-color="#A2F81C"/></linearGradient></defs></svg>