<svg width="149" height="23" fill="none" xmlns="http://www.w3.org/2000/svg"><path d="M3.544 2.95a13.26 13.26 0 00-1.359 1.225 9.398 9.398 0 011.36-1.225zm16.464 3.74a12.982 12.982 0 00-6.026-1.046c-2.308.134-4.027 1.202-3.975 2.516.128 2.984 4.667 1.113 7.206 3.919 2.795 2.872-.052 8.416-8.72 7.548-3.154-.312-5.898-1.425-7.872-3.229-.077-.066-.205 0-.154.09 2.077 4.453 10.95 9.195 19.002 4.698 7.514-4.209 6.437-11.779.539-14.495zM4.749 16.31a12.983 12.983 0 006.027 1.046c2.308-.134 4.026-1.203 3.975-2.516-.128-2.984-4.667-1.113-7.206-3.919-2.77-2.872.077-8.416 8.745-7.548 3.154.312 5.898 1.425 7.872 3.229.077.066.206 0 .154-.09C22.24 2.06 13.366-2.682 5.314 1.815-2.226 6-1.123 13.571 4.749 16.31z" fill="url(#paint0_linear)"/><path d="M41.909 6.624c.872 0 1.846.089 2.897.311v1.136c-.795-.2-1.846-.379-2.692-.379-2.334 0-3.873 1.07-3.873 3.964 0 2.983 1.693 4.052 3.796 4.052.872 0 1.898-.156 2.82-.423v1.113c-1 .268-2.102.379-2.923.379-3.513 0-5.103-1.96-5.103-5.1 0-3.072 1.667-5.053 5.078-5.053zm10.437 5.677V11.5c0-.847-.539-1.425-2.026-1.425-.744 0-1.898.133-2.82.334V9.384a17.39 17.39 0 013.102-.311c1.923 0 3.077.823 3.077 2.493v5.055h-1.154l-.102-.936c-1 .602-2 1.002-3.026 1.002-1.41 0-2.642-.645-2.642-2.16 0-1.469 1.206-2.248 3.026-2.248h2.565v.022zm0 .868H49.96c-1.231 0-1.82.468-1.82 1.292 0 .868.666 1.291 1.666 1.291.846 0 1.872-.423 2.539-.89v-1.693zm8.873-2.76c-1.205.156-2.103.579-3.36 1.158v5.054h-1.333v-7.37h1.282v1.314c1-.557 2-1.27 3.385-1.38v1.224h.026zm6.873-1.159v1.002h-2.719v4.632c0 .646.513.846 1.103.846.436 0 .923-.09 1.308-.2v1.024c-.59.089-1.334.2-1.923.2-1 0-1.821-.29-1.821-1.603v-4.899h-1.206v-.735l.283-.267h.923v-.89l.795-.713h.538v1.625h2.719V9.25zm8.744 7.059c-1.077.312-2 .468-3.205.468-2.693 0-4.129-1.158-4.129-3.875 0-2.493 1.36-3.83 3.924-3.83 2.974 0 3.59 1.782 3.59 3.608v.556h-6.13c.026 1.804 1.13 2.494 3.027 2.494.898 0 2.026-.2 2.923-.468v1.047zm-1.205-3.941c0-1.069-.308-2.338-2.282-2.338-1.693 0-2.488 1.002-2.488 2.338h4.77zm8.591-1.959c-1.205.156-2.103.579-3.36 1.158v5.054H79.53v-7.37h1.282v1.314c1-.557 2-1.27 3.385-1.38v1.224h.026zm4.283-1.292h-.103v7.504h-2.18V6.8h3.668l2.538 7.615h.077L95.018 6.8h3.59v9.82h-2.18V9.117h-.127l-2.616 7.526h-2.642l-2.538-7.526zm17.54 2.939v-.49c0-.6-.435-1.002-1.795-1.002-.718 0-1.974.134-2.795.334V9.295c1.077-.2 2.411-.312 3.36-.312 2.154 0 3.487.891 3.487 2.717v4.921h-1.898l-.153-.78h-.052c-.923.58-1.846.892-2.744.892-1.487 0-2.692-.802-2.692-2.383 0-1.403 1.179-2.294 3.282-2.294h2zm0 1.27h-1.666c-.975 0-1.411.311-1.411.868 0 .624.513.935 1.205.935.667 0 1.385-.222 1.898-.512v-1.291h-.026zm8.668-4.343c.436 0 .923.045 1.411.09V6.2h2.205v10.42h-1.821c-.025-.044-.179-.445-.205-.49a5.86 5.86 0 01-2.59.624c-1.769 0-3.436-.98-3.436-3.674.025-3.14 1.949-4.097 4.436-4.097zm-.461 6.146c.538 0 1.179-.178 1.846-.468v-3.985a7.35 7.35 0 00-1.154-.09c-1.641 0-2.385.69-2.385 2.405 0 1.47.641 2.138 1.693 2.138zm10.565-6.146c.436 0 .923.045 1.411.09V6.2h2.205v10.42h-1.821c-.025-.044-.179-.445-.205-.49a5.86 5.86 0 01-2.59.624c-1.769 0-3.436-.98-3.436-3.674.025-3.14 1.949-4.097 4.436-4.097zm-.461 6.146c.538 0 1.179-.178 1.846-.468v-3.985a7.35 7.35 0 00-1.154-.09c-1.641 0-2.385.69-2.385 2.405 0 1.47.641 2.138 1.693 2.138zm10.463 1.648c-2.462 0-4.36-1.18-4.36-3.897 0-2.716 1.923-3.897 4.36-3.897 2.461 0 4.385 1.225 4.385 3.897 0 2.694-1.898 3.897-4.385 3.897zm.025-6.146c-1.487 0-2.128.824-2.128 2.25 0 1.446.641 2.27 2.128 2.27 1.488 0 2.103-.824 2.103-2.27 0-1.426-.615-2.25-2.103-2.25zm5.155-1.491h2.769l1.77 2.204 1.718-2.205H149l-3.103 3.63L149 16.62h-2.667l-1.872-2.382-1.847 2.382h-2.667l3.103-3.763-3.051-3.719z" fill="#fff"/><defs><linearGradient id="paint0_linear" x1="17.981" y1="21.909" x2="9.16" y2=".122" gradientUnits="userSpaceOnUse"><stop stop-color="#30E650"/><stop offset=".6" stop-color="#9FED26"/><stop offset="1" stop-color="#A2F81C"/></linearGradient></defs></svg>