<svg width="21" height="17" fill="none" xmlns="http://www.w3.org/2000/svg"><path d="M19.5 12.726l-3.844-2.05c-.49-.26-1.143-.173-1.503.195l-1.12 1.152a.56.56 0 01-.613.104l-.211-.095c-.705-.309-1.585-.692-3.359-2.108-1.774-1.416-2.252-2.12-2.635-2.686l-.115-.17c-.118-.166-.063-.377.127-.492l1.44-.897c.46-.288.567-.813.244-1.202L5.34 1.398c-.33-.397-.995-.516-1.503-.27L2.23 1.9c-.505.238-.876.623-1.035 1.075-.58 1.689-.145 4.6 5.22 8.893 4.268 3.414 7.445 4.332 9.627 4.332a6.937 6.937 0 001.488-.155c.564-.127 1.047-.424 1.343-.828l.969-1.285c.308-.41.156-.941-.341-1.206zm-.203.947l-.965 1.286c-.212.29-.56.507-.965.6-1.948.427-5.351.074-10.502-4.047-5.15-4.12-5.596-6.845-5.062-8.404.115-.326.386-.602.75-.775l1.607-.771c.222-.107.508-.057.653.118l1.391 1.675 1.17 1.404c.14.169.092.398-.108.522l-1.44.897c-.438.267-.564.754-.293 1.137l.115.166c.404.594.909 1.333 2.746 2.802 1.837 1.47 2.76 1.873 3.503 2.197l.208.092c.482.217 1.087.116 1.421-.234l1.12-1.152c.157-.16.442-.196.654-.086l3.844 2.05c.22.114.286.345.153.523z" fill="#fff" stroke="#fff" stroke-width=".5"/></svg>