<svg width="84" height="87" fill="none" xmlns="http://www.w3.org/2000/svg"><path d="M71.463 14.837h9.903v13.509c0 8.007-6.48 14.426-14.426 14.426" stroke="url(#paint0_linear)" stroke-width="2.5" stroke-miterlimit="10" stroke-linecap="round" stroke-linejoin="round"/><path d="M75.009 18.688h2.261v6.785c0 6.357-2.873 11.736-8.496 13.692" stroke="url(#paint1_linear)" stroke-width="2.5" stroke-miterlimit="10" stroke-linecap="round" stroke-linejoin="round"/><path d="M12.537 14.837H2.634v13.509c0 8.007 6.48 14.426 14.426 14.426" stroke="url(#paint2_linear)" stroke-width="2.5" stroke-miterlimit="10" stroke-linecap="round" stroke-linejoin="round"/><path d="M8.991 18.688H6.73v6.785c0 6.357 2.873 11.736 8.496 13.692" stroke="url(#paint3_linear)" stroke-width="2.5" stroke-miterlimit="10" stroke-linecap="round" stroke-linejoin="round"/><path d="M82.344 78.042h-21.09" stroke="url(#paint4_linear)" stroke-width="2.5" stroke-miterlimit="10" stroke-linecap="round" stroke-linejoin="round"/><path d="M22.806 78.042H1.656" stroke="url(#paint5_linear)" stroke-width="2.5" stroke-miterlimit="10" stroke-linecap="round" stroke-linejoin="round"/><path d="M28.307 85.56H17.671" stroke="url(#paint6_linear)" stroke-width="2.5" stroke-miterlimit="10" stroke-linecap="round" stroke-linejoin="round"/><path d="M66.328 85.56H44.262" stroke="url(#paint7_linear)" stroke-width="2.5" stroke-miterlimit="10" stroke-linecap="round" stroke-linejoin="round"/><path d="M38.882 85.56h-4.706" stroke="url(#paint8_linear)" stroke-width="2.5" stroke-miterlimit="10" stroke-linecap="round" stroke-linejoin="round"/><path d="M28.491 2h4.096" stroke="url(#paint9_linear)" stroke-width="2.5" stroke-miterlimit="10" stroke-linecap="round" stroke-linejoin="round"/><path d="M38.883 2h32.03v23.84c0 16.748-10.453 30.624-24.145 33.253-1.59.305-3.179.489-4.768.489-1.65 0-3.24-.184-4.768-.49C23.54 56.465 13.087 42.528 13.087 25.84V2h9.291" stroke="url(#paint10_linear)" stroke-width="2.5" stroke-miterlimit="10" stroke-linecap="round" stroke-linejoin="round"/><path d="M61.255 69.423H22.806v8.619h38.449v-8.619z" stroke="url(#paint11_linear)" stroke-width="2.5" stroke-miterlimit="10" stroke-linecap="round" stroke-linejoin="round"/><path d="M47.624 59.154v10.27H36.437v-10.27c1.834.305 3.668.489 5.563.489 1.895-.061 3.79-.184 5.624-.49z" stroke="url(#paint12_linear)" stroke-width="2.5" stroke-miterlimit="10" stroke-linecap="round" stroke-linejoin="round"/><path d="M24.273 42.772s1.773 6.846 12.164 11.614" stroke="url(#paint13_linear)" stroke-width="2.5" stroke-miterlimit="10" stroke-linecap="round" stroke-linejoin="round"/><path d="M42 8.907l4.523 9.17 10.147 1.466-7.335 7.152 1.712 10.086L42 32.013l-9.047 4.768 1.712-10.086-7.335-7.152 10.147-1.467L42 8.907z" stroke="url(#paint14_linear)" stroke-width="2.5" stroke-miterlimit="10" stroke-linecap="round" stroke-linejoin="round"/><defs><linearGradient id="paint0_linear" x1="74.153" y1="14.837" x2="74.153" y2="42.772" gradientUnits="userSpaceOnUse"><stop stop-color="#A2F71D"/><stop offset="1" stop-color="#43E849"/></linearGradient><linearGradient id="paint1_linear" x1="73.022" y1="18.688" x2="73.022" y2="39.165" gradientUnits="userSpaceOnUse"><stop stop-color="#A2F71D"/><stop offset="1" stop-color="#43E849"/></linearGradient><linearGradient id="paint2_linear" x1="9.847" y1="14.837" x2="9.847" y2="42.772" gradientUnits="userSpaceOnUse"><stop stop-color="#A2F71D"/><stop offset="1" stop-color="#43E849"/></linearGradient><linearGradient id="paint3_linear" x1="10.978" y1="18.688" x2="10.978" y2="39.165" gradientUnits="userSpaceOnUse"><stop stop-color="#A2F71D"/><stop offset="1" stop-color="#43E849"/></linearGradient><linearGradient id="paint4_linear" x1="71.799" y1="78.042" x2="71.799" y2="79.042" gradientUnits="userSpaceOnUse"><stop stop-color="#A2F71D"/><stop offset="1" stop-color="#43E849"/></linearGradient><linearGradient id="paint5_linear" x1="12.231" y1="78.042" x2="12.231" y2="79.042" gradientUnits="userSpaceOnUse"><stop stop-color="#A2F71D"/><stop offset="1" stop-color="#43E849"/></linearGradient><linearGradient id="paint6_linear" x1="22.989" y1="85.561" x2="22.989" y2="86.561" gradientUnits="userSpaceOnUse"><stop stop-color="#A2F71D"/><stop offset="1" stop-color="#43E849"/></linearGradient><linearGradient id="paint7_linear" x1="55.295" y1="85.561" x2="55.295" y2="86.561" gradientUnits="userSpaceOnUse"><stop stop-color="#A2F71D"/><stop offset="1" stop-color="#43E849"/></linearGradient><linearGradient id="paint8_linear" x1="36.529" y1="85.561" x2="36.529" y2="86.561" gradientUnits="userSpaceOnUse"><stop stop-color="#A2F71D"/><stop offset="1" stop-color="#43E849"/></linearGradient><linearGradient id="paint9_linear" x1="30.539" y1="2" x2="30.539" y2="3" gradientUnits="userSpaceOnUse"><stop stop-color="#A2F71D"/><stop offset="1" stop-color="#43E849"/></linearGradient><linearGradient id="paint10_linear" x1="42" y1="2" x2="42" y2="59.582" gradientUnits="userSpaceOnUse"><stop stop-color="#A2F71D"/><stop offset="1" stop-color="#43E849"/></linearGradient><linearGradient id="paint11_linear" x1="42.031" y1="69.423" x2="42.031" y2="78.042" gradientUnits="userSpaceOnUse"><stop stop-color="#A2F71D"/><stop offset="1" stop-color="#43E849"/></linearGradient><linearGradient id="paint12_linear" x1="42.031" y1="59.154" x2="42.031" y2="69.423" gradientUnits="userSpaceOnUse"><stop stop-color="#A2F71D"/><stop offset="1" stop-color="#43E849"/></linearGradient><linearGradient id="paint13_linear" x1="30.355" y1="42.772" x2="30.355" y2="54.386" gradientUnits="userSpaceOnUse"><stop stop-color="#A2F71D"/><stop offset="1" stop-color="#43E849"/></linearGradient><linearGradient id="paint14_linear" x1="42" y1="8.907" x2="42" y2="36.781" gradientUnits="userSpaceOnUse"><stop stop-color="#A2F71D"/><stop offset="1" stop-color="#43E849"/></linearGradient></defs></svg>