<svg width="84" height="80" fill="none" xmlns="http://www.w3.org/2000/svg"><path d="M2 70.545h80" stroke="url(#paint0_linear)" stroke-width="3" stroke-miterlimit="10" stroke-linecap="round" stroke-linejoin="round"/><path d="M24.06 78h-6.18" stroke="url(#paint1_linear)" stroke-width="3" stroke-miterlimit="10" stroke-linecap="round" stroke-linejoin="round"/><path d="M66.121 78h-37.09" stroke="url(#paint2_linear)" stroke-width="3" stroke-miterlimit="10" stroke-linecap="round" stroke-linejoin="round"/><path d="M54.606 62H29.333v8.546h25.273V62z" stroke="url(#paint3_linear)" stroke-width="3" stroke-miterlimit="10" stroke-linecap="round" stroke-linejoin="round"/><path d="M69.879 62H14.182c-3.818 0-6.97-3.09-6.97-6.97V8.97c0-3.818 3.091-6.97 6.97-6.97h55.697c3.818 0 6.97 3.09 6.97 6.97v46.06c-.061 3.88-3.152 6.97-6.97 6.97z" stroke="url(#paint4_linear)" stroke-width="3" stroke-miterlimit="10" stroke-linecap="round" stroke-linejoin="round"/><path d="M7.212 51.818h69.576" stroke="url(#paint5_linear)" stroke-width="3" stroke-miterlimit="10" stroke-linecap="round" stroke-linejoin="round"/><path d="M41.879 43.636c-.91 0-1.758-.06-2.606-.242a15.325 15.325 0 01-12.788-15.151 15.312 15.312 0 0115.333-15.334 15.312 15.312 0 0115.333 15.333" stroke="url(#paint6_linear)" stroke-width="3" stroke-miterlimit="10" stroke-linecap="round" stroke-linejoin="round"/><path d="M50 41.333c-1.152.728-1.879 1.334-3.212 1.697" stroke="url(#paint7_linear)" stroke-width="3" stroke-miterlimit="10" stroke-linecap="round" stroke-linejoin="round"/><path d="M53.09 24.303l4.122 4.182 4.303-4.303" stroke="url(#paint8_linear)" stroke-width="3" stroke-miterlimit="10" stroke-linecap="round" stroke-linejoin="round"/><defs><linearGradient id="paint0_linear" x1="42" y1="70.545" x2="42" y2="71.545" gradientUnits="userSpaceOnUse"><stop stop-color="#A2F71D"/><stop offset="1" stop-color="#43E849"/></linearGradient><linearGradient id="paint1_linear" x1="20.97" y1="78" x2="20.97" y2="79" gradientUnits="userSpaceOnUse"><stop stop-color="#A2F71D"/><stop offset="1" stop-color="#43E849"/></linearGradient><linearGradient id="paint2_linear" x1="47.576" y1="78" x2="47.576" y2="79" gradientUnits="userSpaceOnUse"><stop stop-color="#A2F71D"/><stop offset="1" stop-color="#43E849"/></linearGradient><linearGradient id="paint3_linear" x1="41.97" y1="62" x2="41.97" y2="70.546" gradientUnits="userSpaceOnUse"><stop stop-color="#A2F71D"/><stop offset="1" stop-color="#43E849"/></linearGradient><linearGradient id="paint4_linear" x1="42.03" y1="2" x2="42.03" y2="62" gradientUnits="userSpaceOnUse"><stop stop-color="#A2F71D"/><stop offset="1" stop-color="#43E849"/></linearGradient><linearGradient id="paint5_linear" x1="42" y1="51.818" x2="42" y2="52.818" gradientUnits="userSpaceOnUse"><stop stop-color="#A2F71D"/><stop offset="1" stop-color="#43E849"/></linearGradient><linearGradient id="paint6_linear" x1="41.818" y1="12.909" x2="41.818" y2="43.636" gradientUnits="userSpaceOnUse"><stop stop-color="#A2F71D"/><stop offset="1" stop-color="#43E849"/></linearGradient><linearGradient id="paint7_linear" x1="48.394" y1="41.333" x2="48.394" y2="43.03" gradientUnits="userSpaceOnUse"><stop stop-color="#A2F71D"/><stop offset="1" stop-color="#43E849"/></linearGradient><linearGradient id="paint8_linear" x1="57.303" y1="24.182" x2="57.303" y2="28.485" gradientUnits="userSpaceOnUse"><stop stop-color="#A2F71D"/><stop offset="1" stop-color="#43E849"/></linearGradient></defs></svg>